<svg aria-hidden="true" style="position:absolute;width:0;height:0;overflow:hidden" xmlns="http://www.w3.org/2000/svg">
  <defs>
    <symbol id="icon-x-close" viewBox="0 0 32 32">
      <path stroke-linecap="round" stroke-linejoin="round" stroke-width="2.667" d="M24 8 8 24M8 8l16 16"/>
    </symbol>
    <symbol id="icon-eye-see" viewBox="0 0 32 32">
      <path d="M15.76 6.48c1.652-0.025 3.32 0.183 5.88 0.882 0.024 0.008 0.049 0.016 0.074 0.024 0.858 0.284 1.698 0.624 2.5 1.034 0.050 0.025 0.099 0.050 0.149 0.074 0.206 0.102 0.41 0.206 0.608 0.322 0.053 0.031 0.106 0.061 0.158 0.091 0.676 0.39 1.326 0.822 1.946 1.296l0.034 0.026c0.264 0.2 0.522 0.41 0.774 0.626 0.034 0.029 0.068 0.058 0.102 0.086 0.148 0.125 0.292 0.254 0.432 0.386 0.029 0.027 0.058 0.053 0.088 0.080 0.169 0.152 0.33 0.312 0.49 0.472 0.046 0.046 0.091 0.091 0.137 0.136 0.029 0.029 0.058 0.058 0.087 0.087 0.014 0.014 0.027 0.027 0.041 0.041 0.012 0.012 0.025 0.025 0.038 0.038 0.011 0.011 0.022 0.022 0.033 0.033 0.023 0.028 0.023 0.028 0.023 0.068l0.060 0.020c0.028 0.028 0.028 0.028 0.059 0.065 0.064 0.076 0.131 0.149 0.199 0.222 0.089 0.096 0.173 0.194 0.254 0.296 0.046 0.056 0.092 0.109 0.14 0.163 0.139 0.158 0.268 0.322 0.394 0.492 0.045 0.060 0.092 0.119 0.138 0.178 0.39 0.498 0.746 1.026 1.076 1.566 0.011 0.018 0.023 0.037 0.034 0.056 0.036 0.059 0.072 0.118 0.107 0.177 0.011 0.018 0.022 0.036 0.033 0.055 0.108 0.182 0.18 0.358 0.145 0.572-0.035 0.1-0.086 0.189-0.14 0.28-0.010 0.016-0.019 0.033-0.029 0.049-0.24 0.406-0.492 0.81-0.772 1.19-0.024 0.033-0.047 0.066-0.071 0.099-0.195 0.274-0.394 0.546-0.608 0.806-0.059 0.071-0.115 0.144-0.172 0.216-0.17 0.218-0.354 0.424-0.542 0.626-0.076 0.083-0.151 0.167-0.222 0.254-0.011 0.013-0.021 0.026-0.032 0.039-0.014 0.017-0.014 0.017-0.029 0.035-0.025 0.025-0.025 0.025-0.065 0.025-0.005 0.012-0.011 0.024-0.016 0.036-0.024 0.044-0.048 0.073-0.083 0.108-0.012 0.012-0.024 0.024-0.036 0.036l-0.039 0.039c-0.013 0.013-0.026 0.026-0.040 0.040-0.028 0.028-0.056 0.056-0.084 0.083-0.043 0.043-0.085 0.085-0.128 0.128l-0.081 0.081c-0.013 0.013-0.026 0.026-0.039 0.039-0.090 0.089-0.090 0.089-0.135 0.089l-0.020 0.060c-0.026 0.027-0.026 0.027-0.062 0.056-0.084 0.071-0.164 0.146-0.244 0.222-0.105 0.099-0.212 0.193-0.324 0.282-0.047 0.038-0.091 0.077-0.136 0.118-0.084 0.075-0.172 0.145-0.262 0.214-0.077 0.060-0.152 0.12-0.228 0.182-0.19 0.156-0.386 0.302-0.586 0.446-0.014 0.010-0.028 0.020-0.042 0.031-0.682 0.492-1.4 0.926-2.14 1.33-0.017 0.009-0.034 0.019-0.052 0.029-0.268 0.146-0.544 0.274-0.822 0.4-0.059 0.027-0.117 0.054-0.176 0.082-0.516 0.242-1.052 0.446-1.59 0.628l-0.038 0.013c-0.766 0.262-1.548 0.468-2.34 0.628l-0.045 0.009c-0.436 0.087-0.874 0.151-1.314 0.206-0.038 0.005-0.076 0.009-0.114 0.014-0.162 0.020-0.324 0.036-0.488 0.051l-0.088 0.008c-1.054 0.098-2.14 0.095-3.2-0.008l-0.055-0.005c-1.528-0.148-3.040-0.474-4.48-0.994l-0.061-0.022c-0.536-0.195-1.064-0.412-1.578-0.658l-0.127-0.060c-0.43-0.204-0.848-0.424-1.258-0.668-0.048-0.028-0.096-0.056-0.144-0.084-0.368-0.212-0.722-0.446-1.070-0.688-0.021-0.015-0.021-0.015-0.043-0.029-0.228-0.158-0.45-0.326-0.67-0.494-0.040-0.030-0.079-0.061-0.119-0.091-0.372-0.282-0.726-0.586-1.068-0.902-0.011-0.010-0.021-0.019-0.032-0.029-0.030-0.027-0.060-0.055-0.089-0.083-0.041-0.037-0.082-0.071-0.124-0.106-0.017-0.015-0.035-0.030-0.053-0.046v-0.040l-0.032-0.012c-0.068-0.039-0.119-0.093-0.173-0.148l-0.036-0.036c-0.025-0.025-0.050-0.050-0.074-0.075l-0.002-0.002c-0.038-0.039-0.077-0.077-0.115-0.115-0.11-0.111-0.22-0.222-0.32-0.34-0.037-0.043-0.076-0.082-0.117-0.121-0.081-0.080-0.156-0.163-0.23-0.25-0.020-0.023-0.039-0.045-0.059-0.068-0.756-0.868-1.432-1.798-2.020-2.78-0.011-0.018-0.022-0.036-0.033-0.055-0.11-0.186-0.181-0.35-0.145-0.572 0.041-0.114 0.099-0.216 0.16-0.32 0.010-0.017 0.020-0.035 0.031-0.053 0.256-0.436 0.538-0.854 0.83-1.268l0.029-0.042c0.138-0.197 0.284-0.388 0.43-0.578 0.010-0.013 0.019-0.025 0.029-0.038 0.124-0.16 0.252-0.316 0.382-0.47 0.038-0.045 0.076-0.090 0.114-0.135 0.138-0.163 0.278-0.322 0.422-0.48 0.060-0.065 0.12-0.131 0.178-0.197 0.109-0.122 0.226-0.236 0.342-0.35 0.075-0.074 0.149-0.149 0.222-0.224l0.102-0.103c0.017-0.018 0.035-0.035 0.053-0.054 0.017-0.017 0.033-0.033 0.050-0.051 0.015-0.015 0.030-0.031 0.046-0.046 0.038-0.033 0.038-0.033 0.078-0.033v-0.040c0.026-0.026 0.026-0.026 0.064-0.058 0.065-0.055 0.128-0.112 0.19-0.17 0.102-0.095 0.204-0.186 0.314-0.272 0.060-0.048 0.118-0.097 0.177-0.147 0.124-0.106 0.252-0.206 0.38-0.306 0.034-0.027 0.068-0.053 0.101-0.080 0.464-0.37 0.952-0.71 1.454-1.028 0.016-0.010 0.032-0.021 0.049-0.031 0.476-0.302 0.968-0.574 1.47-0.828 0.016-0.008 0.032-0.016 0.048-0.024 0.090-0.046 0.181-0.091 0.272-0.136l0.046-0.022c0.508-0.246 1.024-0.462 1.554-0.658l0.075-0.028c0.58-0.214 1.168-0.39 1.766-0.542 0.038-0.010 0.076-0.019 0.115-0.029 1.366-0.348 2.78-0.516 4.18-0.542zM12.68 8.122c-0.014 0.003-0.028 0.006-0.043 0.008-0.782 0.155-1.546 0.366-2.3 0.632l-0.075 0.026c-0.506 0.181-1 0.384-1.486 0.614-0.020 0.010-0.041 0.019-0.062 0.029-0.45 0.212-0.886 0.438-1.314 0.692-0.047 0.028-0.095 0.056-0.143 0.083-0.202 0.117-0.398 0.242-0.592 0.374-0.028 0.018-0.055 0.037-0.083 0.055-0.082 0.055-0.164 0.11-0.246 0.166l-0.042 0.029c-0.165 0.112-0.328 0.226-0.486 0.348-0.036 0.027-0.071 0.055-0.107 0.082-0.026 0.020-0.026 0.020-0.053 0.041-0.049 0.037-0.098 0.074-0.147 0.111-0.14 0.105-0.274 0.212-0.402 0.33-0.040 0.036-0.080 0.066-0.124 0.096-0.019 0.014-0.038 0.027-0.058 0.041v0.040l-0.032 0.013c-0.066 0.038-0.118 0.089-0.173 0.141-0.023 0.022-0.047 0.044-0.070 0.065-0.011 0.011-0.022 0.021-0.034 0.032-0.075 0.070-0.153 0.137-0.232 0.202-0.013 0.011-0.026 0.022-0.039 0.033-0.017 0.014-0.017 0.014-0.035 0.029-0.030 0.024-0.030 0.024-0.025 0.065-0.012 0.005-0.024 0.011-0.036 0.016-0.044 0.024-0.073 0.047-0.108 0.083-0.012 0.012-0.024 0.024-0.036 0.036s-0.025 0.026-0.039 0.039l-0.040 0.040c-0.028 0.028-0.056 0.057-0.084 0.085-0.043 0.043-0.085 0.086-0.128 0.128-0.027 0.028-0.055 0.055-0.082 0.083-0.013 0.013-0.025 0.025-0.038 0.038-0.076 0.077-0.148 0.155-0.218 0.238-0.025 0.028-0.052 0.055-0.079 0.082-0.036 0.030-0.036 0.030-0.031 0.072h-0.040c-0.028 0.031-0.054 0.063-0.080 0.096-0.065 0.081-0.131 0.159-0.202 0.236-0.091 0.099-0.175 0.202-0.258 0.308-0.030 0.037-0.060 0.075-0.090 0.112-0.041 0.052-0.083 0.103-0.124 0.155-0.021 0.027-0.043 0.053-0.064 0.080-0.116 0.146-0.222 0.298-0.332 0.45-0.028 0.038-0.055 0.076-0.083 0.115-0.196 0.27-0.38 0.548-0.558 0.83-0.014 0.022-0.014 0.022-0.029 0.045-0.009 0.014-0.017 0.028-0.026 0.042-0.008 0.012-0.015 0.024-0.023 0.036-0.018 0.047-0.011 0.069 0.007 0.115 0.019 0.037 0.019 0.037 0.042 0.073 0.009 0.014 0.018 0.029 0.027 0.043l0.030 0.047c0.010 0.016 0.021 0.033 0.032 0.050 0.298 0.464 0.614 0.912 0.956 1.344 0.030 0.039 0.061 0.078 0.091 0.117 0.171 0.22 0.352 0.43 0.54 0.636 0.045 0.051 0.088 0.104 0.13 0.157 0.080 0.099 0.166 0.187 0.258 0.276 0.042 0.042 0.081 0.085 0.12 0.13 0.087 0.1 0.18 0.194 0.274 0.288 0.026 0.026 0.026 0.026 0.052 0.052 0.089 0.089 0.18 0.175 0.276 0.256 0.044 0.038 0.084 0.078 0.124 0.12 0.067 0.068 0.136 0.132 0.208 0.194 0.066 0.057 0.13 0.116 0.194 0.174 0.083 0.085 0.083 0.085 0.188 0.122v0.040c0.034 0.032 0.034 0.032 0.080 0.066l0.086 0.067c0.051 0.040 0.1 0.081 0.15 0.122 0.145 0.119 0.292 0.234 0.444 0.344 0.025 0.018 0.050 0.037 0.074 0.055l0.078 0.058c0.012 0.009 0.023 0.017 0.035 0.026 0.626 0.458 1.284 0.88 1.972 1.242l0.067 0.035c0.68 0.358 1.374 0.67 2.1 0.944 0.032 0.012 0.032 0.012 0.064 0.025 1.646 0.626 3.46 0.984 5.8 1.022 0.051-0 0.102-0 0.152-0 0.516-0.001 1.030-0.011 1.542-0.066l0.050-0.005c0.25-0.027 0.5-0.059 0.75-0.095l0.048-0.007c1.012-0.146 2-0.39 2.98-0.714 0.014-0.005 0.029-0.010 0.044-0.015 0.684-0.228 1.346-0.512 1.996-0.826l0.065-0.031c0.28-0.136 0.552-0.282 0.822-0.438 0.052-0.030 0.104-0.060 0.156-0.089 0.664-0.38 1.294-0.814 1.898-1.282 0.014-0.011 0.028-0.021 0.042-0.032 0.149-0.115 0.294-0.234 0.436-0.356 0.055-0.047 0.112-0.093 0.169-0.138 0.12-0.097 0.232-0.204 0.344-0.308 0.064-0.060 0.129-0.117 0.195-0.174 0.050-0.045 0.097-0.093 0.143-0.141 0.031-0.030 0.031-0.030 0.091-0.070v-0.040c0.069-0.029 0.081-0.034 0.092-0.039l-0.057 0.023c0.046-0.025 0.076-0.051 0.113-0.088 0.012-0.012 0.025-0.025 0.038-0.037s0.025-0.026 0.038-0.039c0.020-0.019 0.020-0.019 0.039-0.039 0.012-0.012 0.025-0.025 0.037-0.037l0.034-0.034c0.029-0.028 0.029-0.028 0.024-0.070l0.060-0.020c0.032-0.032 0.032-0.032 0.064-0.071 0.050-0.059 0.101-0.115 0.156-0.169 0.078-0.077 0.149-0.157 0.22-0.24 0.020-0.023 0.039-0.045 0.059-0.068 0.21-0.24 0.416-0.482 0.612-0.734 0.032-0.041 0.065-0.083 0.097-0.124 0.296-0.376 0.566-0.768 0.828-1.168 0.038-0.058 0.077-0.116 0.116-0.174 0.019-0.028 0.037-0.057 0.056-0.085l0.025-0.037c0.032-0.050 0.050-0.079 0.038-0.14-0.010-0.017-0.020-0.035-0.031-0.052s-0.010-0.018-0.021-0.037c-0.040-0.070-0.067-0.113-0.093-0.155l0.014 0.024c-0.010-0.016-0.020-0.032-0.030-0.048-0.374-0.604-0.798-1.188-1.26-1.726-0.047-0.056-0.093-0.112-0.139-0.169-0.087-0.107-0.181-0.208-0.276-0.31-0.079-0.085-0.156-0.172-0.23-0.262-0.016-0.019-0.016-0.019-0.033-0.039-0.009-0.012-0.019-0.023-0.029-0.035-0.024-0.030-0.024-0.030-0.065-0.025-0.005-0.012-0.011-0.024-0.017-0.036-0.023-0.043-0.045-0.070-0.079-0.104-0.011-0.011-0.022-0.022-0.034-0.034s-0.024-0.024-0.036-0.036c-0.012-0.012-0.025-0.025-0.037-0.037-0.026-0.026-0.052-0.052-0.078-0.078-0.040-0.040-0.080-0.080-0.119-0.12-0.025-0.025-0.050-0.050-0.076-0.075-0.012-0.012-0.024-0.024-0.036-0.036-0.054-0.062-0.054-0.062-0.129-0.083l-0.020-0.060c-0.028-0.029-0.028-0.029-0.064-0.058-0.080-0.068-0.156-0.138-0.232-0.21-0.101-0.094-0.204-0.184-0.312-0.27-0.053-0.043-0.104-0.089-0.154-0.135-0.073-0.067-0.148-0.129-0.228-0.189-0.067-0.051-0.114-0.088-0.16-0.125l0.017 0.013c-0.17-0.135-0.344-0.264-0.52-0.392-0.045-0.033-0.091-0.067-0.136-0.1-1.004-0.738-2.12-1.354-3.28-1.834-0.031-0.013-0.031-0.013-0.063-0.027-1.052-0.442-2.14-0.764-3.26-0.994l-0.077-0.016c-0.778-0.157-1.572-0.24-2.36-0.284-0.021-0.001-0.042-0.002-0.064-0.004-1.382-0.074-2.78 0.033-4.14 0.304z"></path>
      <path d="M15.98 10.020l0.054 0c0.306 0.001 0.604 0.017 0.906 0.066l0.062 0.010c0.822 0.138 1.606 0.446 2.3 0.91 0.015 0.010 0.030 0.020 0.045 0.030 0.191 0.129 0.37 0.268 0.542 0.42 0.023 0.020 0.046 0.040 0.069 0.060 0.116 0.1 0.224 0.206 0.332 0.314 0.018 0.018 0.036 0.035 0.054 0.053 0.121 0.121 0.232 0.248 0.338 0.382 0.011 0.014 0.022 0.027 0.033 0.041 0.155 0.197 0.292 0.404 0.422 0.618 0.021 0.035 0.043 0.070 0.065 0.104 0.788 1.294 0.968 2.96 0.618 4.4-0.202 0.804-0.564 1.608-1.098 2.24l-0.027 0.032c-0.063 0.077-0.128 0.152-0.193 0.228-0.014 0.016-0.028 0.033-0.043 0.050-0.208 0.236-0.43 0.458-0.678 0.65-0.026 0.021-0.053 0.043-0.079 0.064-0.222 0.179-0.456 0.332-0.702 0.476l-0.082 0.049c-0.714 0.424-1.558 0.646-2.38 0.73-0.023 0.003-0.047 0.005-0.071 0.008-0.91 0.084-1.844-0.071-2.68-0.408-0.019-0.007-0.037-0.015-0.057-0.022-0.55-0.222-1.042-0.53-1.504-0.898l-0.035-0.028c-0.163-0.131-0.312-0.276-0.46-0.424l-0.053-0.052c-0.119-0.119-0.226-0.244-0.33-0.376-0.012-0.014-0.023-0.029-0.035-0.044-0.672-0.848-1.094-1.846-1.246-2.92l-0.007-0.048c-0.078-0.55-0.064-1.146 0.027-1.692l0.010-0.061c0.194-1.146 0.734-2.32 1.58-3.12 0.034-0.033 0.034-0.033 0.078-0.089 0.051-0.060 0.105-0.109 0.164-0.159 0.054-0.047 0.105-0.096 0.157-0.144 1.038-0.962 2.5-1.468 3.92-1.462zM13.2 12.26c-0.019 0.014-0.037 0.028-0.056 0.042-0.992 0.77-1.624 1.908-1.79 3.14-0.127 1.196 0.188 2.44 0.936 3.38 0.062 0.076 0.127 0.151 0.192 0.224l0.046 0.053c0.176 0.199 0.362 0.386 0.574 0.548l0.038 0.029c0.686 0.522 1.468 0.842 2.32 0.95 0.015 0.002 0.029 0.004 0.044 0.006 0.156 0.018 0.312 0.019 0.468 0.019l0.044 0c1.29-0.002 2.46-0.544 3.36-1.446 0.038-0.036 0.038-0.036 0.034-0.079h0.040c0.055-0.059 0.104-0.124 0.154-0.187 0.025-0.032 0.051-0.064 0.076-0.096 0.115-0.145 0.216-0.296 0.31-0.456 0.007-0.012 0.014-0.024 0.021-0.036 0.626-1.054 0.802-2.32 0.506-3.5-0.14-0.538-0.362-1.064-0.688-1.518l-0.042-0.058c-0.282-0.384-0.61-0.742-0.998-1.022-0.021-0.016-0.043-0.031-0.065-0.047-0.258-0.183-0.528-0.34-0.816-0.472-0.021-0.010-0.021-0.010-0.043-0.020-1.514-0.702-3.36-0.454-4.68 0.54z"></path>
    </symbol>
    <symbol id="icon-eye-cannot-see" viewBox="0 0 32 32">
      <path d="M15.9 6c0.654-0.014 1.314 0.039 1.964 0.101l0.068 0.006c1.664 0.159 3.32 0.616 5.78 1.672 0.047 0.024 0.094 0.047 0.141 0.070 0.254 0.124 0.5 0.26 0.746 0.4 0.065 0.037 0.131 0.074 0.198 0.11 0.234 0.128 0.458 0.27 0.68 0.416l0.039 0.026c0.065 0.043 0.131 0.086 0.196 0.129 0.024 0.016 0.049 0.032 0.073 0.048 0.022 0.014 0.043 0.029 0.066 0.043 0.060 0.037 0.117 0.071 0.182 0.099 0.052-0.022 0.087-0.042 0.132-0.075 0.028-0.019 0.057-0.038 0.085-0.057l0.048-0.033c0.093-0.061 0.19-0.119 0.286-0.176 0.061-0.037 0.121-0.073 0.182-0.11l0.037-0.022c0.127-0.077 0.254-0.155 0.38-0.232 0.165-0.102 0.332-0.202 0.498-0.302 0.136-0.081 0.27-0.164 0.406-0.248 0.193-0.119 0.388-0.236 0.582-0.354 0.216-0.129 0.43-0.26 0.644-0.39 0.024-0.015 0.024-0.015 0.049-0.030 0.104-0.063 0.208-0.127 0.31-0.19 0.216-0.132 0.432-0.264 0.648-0.396 0.107-0.065 0.214-0.131 0.322-0.196 0.030-0.019 0.061-0.037 0.091-0.055 0.060-0.036 0.119-0.073 0.178-0.111 0.173-0.11 0.356-0.171 0.56-0.13 0.195 0.050 0.334 0.138 0.438 0.312 0.085 0.167 0.132 0.306 0.089 0.492-0.121 0.368-0.456 0.516-0.77 0.7-0.226 0.131-0.366 0.217-0.505 0.304l0.075-0.044c-0.183 0.113-0.366 0.226-0.552 0.338-0.012 0.007-0.023 0.014-0.036 0.022-0.047 0.028-0.093 0.057-0.14 0.085-0.112 0.068-0.224 0.136-0.336 0.204-0.019 0.011-0.037 0.023-0.057 0.034-0.056 0.034-0.111 0.068-0.167 0.102-0.258 0.157-0.518 0.314-0.776 0.472-0.216 0.131-0.432 0.262-0.648 0.394-0.058 0.035-0.116 0.071-0.174 0.106-0.262 0.159-0.524 0.318-0.784 0.478-0.254 0.156-0.51 0.31-0.764 0.466-0.071 0.043-0.143 0.087-0.214 0.13-0.017 0.010-0.017 0.010-0.035 0.021-0.058 0.035-0.116 0.071-0.174 0.106-0.105 0.064-0.21 0.128-0.316 0.192-0.238 0.145-0.476 0.29-0.714 0.436-0.354 0.218-0.71 0.434-1.068 0.648-0.216 0.129-0.43 0.26-0.644 0.39-0.064 0.039-0.128 0.078-0.192 0.116-0.181 0.11-0.36 0.22-0.54 0.332-0.234 0.145-0.468 0.288-0.704 0.43-0.106 0.064-0.212 0.128-0.318 0.193-0.058 0.035-0.116 0.071-0.174 0.106l-0.035 0.021c-0.083 0.050-0.166 0.101-0.248 0.151-0.117 0.071-0.234 0.142-0.352 0.214-0.042 0.026-0.084 0.051-0.126 0.077-0.218 0.132-0.436 0.266-0.652 0.4-0.252 0.155-0.504 0.308-0.756 0.46-0.105 0.064-0.21 0.128-0.316 0.192-0.058 0.035-0.116 0.071-0.175 0.106-0.012 0.007-0.023 0.014-0.035 0.021-0.071 0.043-0.142 0.086-0.214 0.129-0.228 0.138-0.456 0.276-0.682 0.414-0.168 0.102-0.336 0.204-0.504 0.306-0.012 0.007-0.023 0.014-0.035 0.022-0.096 0.058-0.191 0.116-0.286 0.174-0.083 0.051-0.167 0.101-0.25 0.152-0.012 0.007-0.023 0.014-0.035 0.022-0.175 0.106-0.35 0.212-0.524 0.318-0.103 0.063-0.206 0.125-0.31 0.188-0.228 0.139-0.458 0.278-0.686 0.418-0.179 0.11-0.358 0.22-0.538 0.328-0.012 0.007-0.023 0.014-0.035 0.021-0.094 0.057-0.188 0.114-0.282 0.171-0.082 0.050-0.165 0.1-0.248 0.15-0.017 0.011-0.017 0.011-0.035 0.021-0.168 0.102-0.336 0.204-0.502 0.308-0.248 0.153-0.498 0.306-0.748 0.456-0.107 0.065-0.214 0.13-0.322 0.195-0.035 0.021-0.071 0.043-0.106 0.064-0.129 0.078-0.258 0.156-0.386 0.234-0.158 0.096-0.316 0.192-0.474 0.286s-0.314 0.19-0.47 0.286c-0.147 0.091-0.294 0.181-0.442 0.27-0.172 0.102-0.342 0.206-0.512 0.31-0.058 0.035-0.116 0.070-0.173 0.105-0.2 0.122-0.4 0.244-0.6 0.368-0.242 0.149-0.484 0.296-0.726 0.444-0.11 0.067-0.22 0.134-0.33 0.2-0.158 0.096-0.316 0.192-0.474 0.288-0.105 0.064-0.21 0.128-0.316 0.192-0.020 0.012-0.040 0.025-0.061 0.037-0.218 0.132-0.436 0.266-0.652 0.4-0.346 0.214-0.694 0.426-1.044 0.634-0.177 0.106-0.354 0.214-0.53 0.322-0.085 0.051-0.169 0.103-0.254 0.154-0.252 0.152-0.502 0.306-0.754 0.46-0.144 0.088-0.288 0.176-0.432 0.262-0.135 0.081-0.268 0.163-0.402 0.246 0.261-0.144 0.071-0.026-0.119 0.091l-0.464 0.266c-0.059 0.036-0.118 0.071-0.177 0.107-0.105 0.064-0.21 0.128-0.316 0.192-0.058 0.035-0.116 0.070-0.174 0.105-0.011 0.007-0.023 0.014-0.035 0.021-0.073 0.044-0.146 0.089-0.22 0.133-0.050 0.030-0.1 0.061-0.15 0.091l-0.104 0.063c-0.032 0.020-0.032 0.020-0.065 0.040-0.031 0.019-0.031 0.019-0.064 0.039-0.045 0.028-0.090 0.055-0.136 0.083-0.012 0.007-0.023 0.015-0.035 0.022l-0.097 0.061c-0.177 0.105-0.372 0.127-0.574 0.080-0.187-0.067-0.312-0.194-0.404-0.366-0.012-0.021-0.024-0.042-0.036-0.064-0.053-0.17-0.043-0.322 0.035-0.482 0.129-0.24 0.352-0.354 0.578-0.488 0.060-0.035 0.118-0.072 0.177-0.108 0.088-0.054 0.175-0.107 0.264-0.16 0.145-0.087 0.29-0.175 0.434-0.264 0.108-0.066 0.216-0.131 0.324-0.197 0.228-0.139 0.456-0.278 0.684-0.418 0.248-0.153 0.498-0.306 0.748-0.456 0.107-0.065 0.214-0.13 0.322-0.195 0.035-0.021 0.071-0.043 0.106-0.064 0.129-0.078 0.258-0.156 0.386-0.234 0.074-0.045 0.149-0.090 0.222-0.136l0.112-0.068c0.055-0.034 0.11-0.067 0.166-0.1 0.016-0.010 0.033-0.020 0.050-0.030 0.074-0.045 0.145-0.086 0.228-0.115-0.145-0.15-0.304-0.284-0.466-0.414-0.071-0.059-0.14-0.121-0.208-0.183-0.040-0.037-0.081-0.073-0.123-0.108-0.199-0.174-0.39-0.356-0.576-0.546-0.043-0.043-0.085-0.086-0.128-0.129l-0.141-0.141c-0.049-0.049-0.098-0.097-0.147-0.146l-0.1-0.099-0.050-0.049c-0.087-0.087-0.171-0.175-0.252-0.268-0.045-0.052-0.092-0.102-0.139-0.152-0.085-0.092-0.166-0.188-0.246-0.286-0.054-0.066-0.109-0.13-0.165-0.194-0.108-0.125-0.212-0.254-0.312-0.386-0.032-0.041-0.064-0.082-0.097-0.123-0.163-0.208-0.32-0.42-0.474-0.636l-0.024-0.034c-0.138-0.196-0.27-0.396-0.402-0.596l-0.062-0.094c-0.181-0.272-0.346-0.554-0.512-0.836l-0.031-0.053c-0.025-0.044-0.050-0.087-0.075-0.131-0.010-0.018-0.010-0.018-0.021-0.036-0.095-0.169-0.145-0.324-0.113-0.52 0.037-0.097 0.084-0.185 0.134-0.274 0.027-0.048 0.052-0.096 0.078-0.144 0.326-0.614 0.712-1.192 1.108-1.762 0.009-0.013 0.019-0.027 0.028-0.041 0.133-0.191 0.274-0.374 0.418-0.556 0.031-0.040 0.062-0.079 0.093-0.119 0.123-0.158 0.25-0.312 0.38-0.464 0.021-0.024 0.042-0.049 0.062-0.073 0.105-0.123 0.21-0.246 0.318-0.368 0.014-0.016 0.028-0.032 0.042-0.048 0.087-0.098 0.177-0.193 0.272-0.284 0.038-0.039 0.073-0.078 0.108-0.119 0.088-0.101 0.182-0.195 0.278-0.29 0.030-0.030 0.061-0.061 0.091-0.091 0.096-0.096 0.193-0.191 0.298-0.278 0.036-0.032 0.070-0.065 0.104-0.099 0.060-0.061 0.122-0.117 0.187-0.172 0.047-0.041 0.093-0.083 0.139-0.125 0.086-0.078 0.175-0.152 0.266-0.226 0.050-0.041 0.1-0.083 0.149-0.125 0.136-0.117 0.278-0.226 0.42-0.334 0.060-0.045 0.119-0.091 0.177-0.137 0.198-0.157 0.402-0.302 0.612-0.444 0.049-0.033 0.097-0.067 0.145-0.101 0.404-0.284 0.826-0.54 1.256-0.786 0.016-0.009 0.031-0.018 0.048-0.027 0.258-0.148 0.524-0.284 0.788-0.42 0.055-0.028 0.111-0.057 0.166-0.086 1.58-0.824 3.36-1.346 7.14-1.846l0.042-0.002c0.185-0.010 0.368-0.015 0.554-0.019zM13.84 7.482l-0.048 0.007c-1.56 0.218-3.12 0.66-5.040 1.556-0.033 0.016-0.066 0.032-0.1 0.048-1.242 0.604-2.46 1.392-3.48 2.32-0.054 0.048-0.109 0.093-0.165 0.138-0.075 0.061-0.144 0.123-0.21 0.192-0.034 0.034-0.069 0.065-0.106 0.096-0.106 0.092-0.204 0.192-0.302 0.292-0.028 0.028-0.028 0.028-0.056 0.056-0.034 0.034-0.069 0.069-0.103 0.104-0.076 0.077-0.152 0.153-0.23 0.228-0.216 0.214-0.216 0.214-0.414 0.446-0.055 0.068-0.115 0.132-0.175 0.195-0.086 0.092-0.169 0.185-0.246 0.284-0.033 0.042-0.066 0.083-0.1 0.124-0.175 0.212-0.34 0.43-0.504 0.65-0.011 0.015-0.022 0.029-0.033 0.044-0.292 0.394-0.564 0.804-0.816 1.224-0.022 0.036-0.044 0.073-0.066 0.109-0.035 0.057-0.069 0.114-0.103 0.172-0.016 0.026-0.016 0.026-0.032 0.053-0.055 0.094-0.055 0.094-0.073 0.199 0.033 0.086 0.078 0.161 0.127 0.24l0.032 0.053c0.034 0.056 0.069 0.112 0.104 0.167l0.035 0.056c0.141 0.226 0.284 0.448 0.438 0.664 0.029 0.041 0.057 0.081 0.085 0.122 0.132 0.19 0.27 0.374 0.412 0.558 0.028 0.037 0.057 0.074 0.085 0.111 0.157 0.206 0.322 0.406 0.49 0.602 0.036 0.043 0.073 0.086 0.108 0.129 0.124 0.149 0.254 0.292 0.388 0.432 0.061 0.064 0.121 0.13 0.18 0.196 0.121 0.133 0.248 0.26 0.374 0.386 0.038 0.038 0.077 0.077 0.115 0.115 0.109 0.109 0.218 0.218 0.334 0.316 0.062 0.054 0.121 0.111 0.181 0.167 0.105 0.098 0.21 0.192 0.324 0.282 0.051 0.041 0.099 0.085 0.147 0.129 0.111 0.101 0.228 0.193 0.348 0.284 0.037 0.029 0.072 0.058 0.108 0.087 0.017 0.014 0.017 0.014 0.035 0.028 0.022 0.018 0.044 0.036 0.066 0.054 0.045 0.036 0.076 0.058 0.134 0.060 0.081-0.033 0.151-0.080 0.224-0.128 0.034-0.022 0.069-0.044 0.103-0.066 0.026-0.017 0.026-0.017 0.053-0.034 0.079-0.050 0.16-0.099 0.24-0.147 0.161-0.096 0.322-0.193 0.482-0.29 0.024-0.015 0.048-0.029 0.072-0.044 0.036-0.022 0.073-0.044 0.109-0.066 0.096-0.059 0.193-0.117 0.29-0.176 0.105-0.064 0.21-0.127 0.314-0.191 0.042-0.026 0.084-0.051 0.126-0.077 0.222-0.134 0.442-0.27 0.662-0.406 0.152-0.093 0.304-0.186 0.456-0.278 0.151-0.090 0.3-0.182 0.45-0.274 0.171-0.105 0.342-0.21 0.512-0.314 0.035-0.021 0.070-0.042 0.104-0.063 0.11-0.067 0.22-0.133 0.33-0.2 0.052-0.031 0.103-0.062 0.155-0.093 0.025-0.015 0.049-0.030 0.074-0.044 0.034-0.020 0.068-0.041 0.103-0.062l0.059-0.035c0.050-0.034 0.090-0.070 0.132-0.115-0.005-0.012-0.010-0.023-0.015-0.036-0.149-0.364-0.264-0.722-0.34-1.108l-0.012-0.061c-0.056-0.298-0.080-0.592-0.078-0.894 0-0.049 0-0.098-0-0.147-0-0.31 0.027-0.616 0.090-0.92l0.013-0.064c0.044-0.206 0.098-0.408 0.162-0.608 0.005-0.015 0.010-0.031 0.015-0.046 0.174-0.532 0.446-1.028 0.786-1.474l0.044-0.060c0.139-0.186 0.296-0.354 0.456-0.52 0.023-0.025 0.023-0.025 0.047-0.050 0.093-0.096 0.194-0.181 0.3-0.264 0.023-0.018 0.046-0.037 0.070-0.055 0.75-0.6 1.618-0.96 2.56-1.11l0.048-0.008c1.34-0.214 2.76 0.192 3.84 0.974 0.076 0.056 0.15 0.114 0.224 0.174l0.033 0.027c0.26 0.212 0.512 0.444 0.712 0.716 0.012 0.012 0.024 0.024 0.036 0.037 0.095 0 0.145-0.032 0.222-0.080 0.015-0.009 0.029-0.017 0.044-0.026 0.051-0.031 0.102-0.062 0.153-0.094l0.060-0.037c0.088-0.054 0.176-0.108 0.264-0.162 0.131-0.081 0.264-0.161 0.396-0.24 0.151-0.090 0.3-0.182 0.45-0.274 0.328-0.202 0.656-0.402 0.986-0.6 0.139-0.083 0.278-0.168 0.416-0.252 0.168-0.102 0.336-0.204 0.504-0.306 0.142-0.086 0.284-0.173 0.426-0.26 0.226-0.137 0.45-0.274 0.678-0.408-0.024-0.073-0.043-0.080-0.108-0.119l-0.056-0.034c-0.030-0.018-0.030-0.018-0.061-0.036-0.021-0.012-0.041-0.025-0.063-0.038-0.202-0.121-0.406-0.238-0.612-0.354-0.016-0.009-0.032-0.018-0.048-0.027-0.984-0.556-2.040-0.992-3.14-1.312l-0.038-0.011c-1.224-0.362-2.46-0.568-3.74-0.648l-0.046-0.003c-0.258-0.016-0.514-0.022-0.772-0.022l-0.061-0c-0.726 0.001-1.444 0.065-2.16 0.165zM14.46 12.262c-0.013 0.005-0.026 0.010-0.039 0.015-0.296 0.115-0.566 0.278-0.82 0.464-0.016 0.011-0.016 0.011-0.032 0.023-0.808 0.584-1.372 1.516-1.534 2.5-0.11 0.734-0.051 1.52 0.266 2.2 0.075-0.013 0.13-0.047 0.194-0.086 0.011-0.007 0.022-0.014 0.034-0.020 0.036-0.022 0.072-0.044 0.109-0.067 0.025-0.016 0.051-0.031 0.076-0.047 0.051-0.031 0.103-0.063 0.154-0.095 0.103-0.063 0.206-0.126 0.31-0.189l0.112-0.068c0.095-0.058 0.189-0.115 0.284-0.173 0.038-0.023 0.077-0.047 0.115-0.070 0.095-0.058 0.19-0.116 0.286-0.173 0.2-0.122 0.4-0.244 0.6-0.368 0.181-0.111 0.362-0.222 0.544-0.332 0.012-0.007 0.023-0.014 0.035-0.021 0.094-0.057 0.189-0.114 0.282-0.171 0.082-0.050 0.165-0.1 0.248-0.15 0.012-0.007 0.023-0.014 0.035-0.021 0.173-0.105 0.344-0.21 0.516-0.316 0.157-0.097 0.314-0.192 0.474-0.286 0.125-0.073 0.25-0.149 0.372-0.226 0.288-0.18 0.58-0.358 0.87-0.534 0.087-0.052 0.173-0.105 0.26-0.157 0.418-0.254 0.418-0.254 0.59-0.358 0.022-0.013 0.044-0.026 0.066-0.040 0.044-0.026 0.088-0.049 0.134-0.071-0.048-0.111-0.138-0.193-0.22-0.28-0.012-0.012-0.023-0.025-0.035-0.038-0.722-0.748-1.762-1.098-2.78-1.122-0.524-0.007-1.018 0.089-1.506 0.28zM28.060 11.040l0.042-0.003c0.196-0.004 0.348 0.098 0.488 0.228 0.064 0.063 0.126 0.127 0.188 0.191l0.077 0.078c0.109 0.111 0.218 0.224 0.32 0.342 0.042 0.050 0.087 0.097 0.131 0.145 0.112 0.122 0.22 0.246 0.326 0.372 0.028 0.034 0.057 0.067 0.086 0.1 0.102 0.12 0.202 0.242 0.298 0.366 0.060 0.077 0.121 0.153 0.183 0.228 0.118 0.144 0.228 0.29 0.336 0.442 0.041 0.058 0.083 0.116 0.125 0.174 0.111 0.153 0.218 0.306 0.322 0.464 0.015 0.023 0.030 0.045 0.046 0.068 0.191 0.284 0.374 0.574 0.548 0.868 0.030 0.051 0.061 0.101 0.091 0.152l0.070 0.116c0.011 0.018 0.022 0.036 0.033 0.054 0.133 0.224 0.27 0.454 0.212 0.72-0.067 0.214-0.189 0.408-0.3 0.6-0.015 0.025-0.015 0.025-0.030 0.051-0.23 0.398-0.47 0.79-0.73 1.168-0.010 0.015-0.021 0.030-0.031 0.045-0.308 0.448-0.636 0.878-0.98 1.298-0.027 0.033-0.053 0.066-0.080 0.099-0.094 0.116-0.18 0.216-0.269 0.314l0.005-0.006c-0.046 0.052-0.090 0.106-0.134 0.161-0.075 0.092-0.155 0.176-0.24 0.258-0.040 0.041-0.078 0.082-0.115 0.125-0.073 0.084-0.15 0.163-0.228 0.242l-0.043 0.043c-0.030 0.030-0.059 0.059-0.089 0.089-0.045 0.045-0.090 0.090-0.134 0.135-0.029 0.029-0.058 0.058-0.087 0.087-0.013 0.013-0.026 0.026-0.040 0.040-0.077 0.077-0.156 0.15-0.238 0.22-0.063 0.055-0.123 0.112-0.183 0.169-0.105 0.098-0.21 0.192-0.324 0.282-0.051 0.041-0.099 0.085-0.147 0.129-0.099 0.090-0.204 0.173-0.31 0.256-0.061 0.047-0.121 0.096-0.181 0.144-0.368 0.298-0.756 0.574-1.152 0.834-0.021 0.014-0.021 0.014-0.043 0.028-1.414 0.93-2.94 1.654-8.66 2.98-0.041 0.003-0.082 0.007-0.123 0.011-0.91 0.081-1.852 0.061-2.76-0.027l-0.046-0.004c-1.644-0.157-3.26-0.55-5.12-1.296-0.021-0.009-0.042-0.018-0.064-0.027-0.146-0.063-0.292-0.127-0.436-0.193-0.021-0.009-0.042-0.019-0.064-0.028-0.062-0.028-0.124-0.057-0.186-0.085-0.018-0.008-0.037-0.017-0.056-0.025-0.172-0.081-0.324-0.188-0.404-0.364-0.009-0.020-0.019-0.039-0.028-0.060-0.066-0.172-0.048-0.328 0.018-0.496 0.078-0.165 0.214-0.3 0.386-0.366 0.226-0.055 0.428-0.013 0.634 0.087l0.048 0.023c0.076 0.036 0.152 0.073 0.228 0.11 1.474 0.71 3.080 1.124 4.7 1.342 0.035 0.005 0.071 0.010 0.106 0.014 0.348 0.046 0.698 0.065 1.048 0.085l0.071 0.004c0.448 0.025 0.894 0.030 1.342 0.007l0.052-0.003c1.368-0.070 2.7-0.308 4.020-0.682l0.065-0.018c0.682-0.194 1.346-0.454 1.994-0.742 0.030-0.013 0.030-0.013 0.061-0.027 0.206-0.090 0.408-0.184 0.606-0.286 0.051-0.026 0.102-0.052 0.153-0.078 0.362-0.183 0.712-0.378 1.058-0.588 0.019-0.012 0.038-0.023 0.058-0.035 0.468-0.284 0.926-0.59 1.362-0.924 0.026-0.020 0.052-0.039 0.078-0.059 0.374-0.284 0.734-0.586 1.082-0.902 0.032-0.029 0.064-0.058 0.096-0.086 0.206-0.187 0.41-0.376 0.606-0.574 0.035-0.035 0.070-0.070 0.106-0.106 0.104-0.104 0.206-0.208 0.302-0.32 0.051-0.059 0.104-0.115 0.157-0.171 0.093-0.099 0.181-0.2 0.266-0.308 0.053-0.065 0.108-0.129 0.164-0.193 0.11-0.127 0.214-0.258 0.316-0.39 0.025-0.032 0.050-0.064 0.075-0.096 0.392-0.506 0.754-1.040 1.082-1.59 0.031-0.051 0.063-0.103 0.094-0.154 0.021-0.034 0.042-0.069 0.062-0.103 0.047-0.078 0.056-0.093 0.066-0.108l-0.037 0.061c0.038-0.064 0.063-0.108 0.065-0.184-0.032-0.087-0.077-0.162-0.126-0.24-0.011-0.017-0.021-0.035-0.032-0.053-0.034-0.056-0.069-0.112-0.104-0.167-0.011-0.018-0.023-0.037-0.035-0.055-0.162-0.26-0.33-0.514-0.506-0.764-0.010-0.014-0.020-0.029-0.030-0.044-0.141-0.204-0.288-0.402-0.44-0.598-0.027-0.035-0.055-0.071-0.082-0.107-0.254-0.334-0.524-0.654-0.806-0.966-0.028-0.030-0.055-0.061-0.082-0.091-0.206-0.232-0.418-0.458-0.642-0.674-0.155-0.152-0.244-0.308-0.258-0.526-0-0.19 0.077-0.354 0.206-0.492 0.13-0.123 0.276-0.168 0.452-0.172z"></path>
      <path d="M21.080 15.72c0.118 0.103 0.212 0.244 0.24 0.4 0.051 0.996-0.344 2.1-0.92 2.9-0.009 0.012-0.017 0.024-0.026 0.037-0.3 0.414-0.642 0.818-1.054 1.124-0.012 0.009-0.025 0.019-0.038 0.029-1.154 0.872-2.58 1.26-4.020 1.070-0.53-0.076-1.402-0.202-1.748-0.656-0.095-0.165-0.145-0.336-0.102-0.528 0.067-0.191 0.162-0.346 0.348-0.442 0.252-0.111 0.438-0.070 0.684 0.025 0.034 0.013 0.067 0.027 0.101 0.040 0.228 0.090 0.452 0.156 0.694 0.202l0.051 0.010c1.012 0.188 2.1-0.043 2.94-0.616 0.356-0.246 0.674-0.534 0.936-0.88 0.023-0.030 0.045-0.059 0.068-0.089 0.454-0.598 0.666-1.32 0.746-2.060 0.026-0.224 0.076-0.414 0.25-0.568 0.266-0.188 0.572-0.182 0.84 0z"></path>
    </symbol>
  </defs>
</svg>
